<svg width="188" height="34" viewBox="0 0 188 34" fill="none" xmlns="http://www.w3.org/2000/svg">
<path d="M8.2563 1.51458C8.46483 1.51482 8.67335 1.51393 8.88188 1.5132C9.28916 1.51195 9.69644 1.51177 10.1037 1.512C10.4353 1.51217 10.7669 1.512 11.0985 1.51158C11.1459 1.51152 11.1933 1.51146 11.2422 1.5114C11.3386 1.51129 11.4349 1.51117 11.5313 1.51105C12.4329 1.50998 13.3344 1.51019 14.2359 1.51079C15.0576 1.5113 15.8793 1.51019 16.701 1.50832C17.5479 1.50641 18.3948 1.50561 19.2417 1.50597C19.7159 1.50616 20.19 1.50593 20.6642 1.50453C21.0681 1.50335 21.4719 1.50323 21.8757 1.50441C22.0811 1.50498 22.2864 1.50511 22.4918 1.50392C23.7356 1.49716 24.9549 1.58065 26.0964 2.1316C26.1299 2.14748 26.1634 2.16335 26.1979 2.1797C26.54 2.34246 26.8649 2.50912 27.1794 2.72149C27.2604 2.75667 27.3422 2.79043 27.4255 2.8198C27.4255 2.85224 27.4255 2.88469 27.4255 2.91811C27.4592 2.92876 27.4929 2.9394 27.5276 2.95037C27.714 3.03587 27.8525 3.1537 28.007 3.28679C28.0364 3.31131 28.0658 3.33583 28.0961 3.3611C28.1701 3.42405 28.2411 3.49037 28.3116 3.55715C28.3116 3.5896 28.3116 3.62204 28.3116 3.65547C28.3461 3.66459 28.3806 3.67372 28.4162 3.68312C28.609 3.77937 28.7317 3.92125 28.8531 4.09788C28.8531 4.13032 28.8531 4.16276 28.8531 4.19619C28.8856 4.19619 28.918 4.19619 28.9515 4.19619C29.0257 4.28951 29.0257 4.28951 29.1053 4.41125C29.1319 4.45117 29.1584 4.49109 29.1857 4.53222C29.2469 4.6386 29.2469 4.6386 29.2469 4.73692C29.2956 4.75314 29.3443 4.76936 29.3945 4.78607C29.4565 4.86602 29.4565 4.86602 29.5167 4.96849C29.5384 5.00537 29.5601 5.04225 29.5825 5.08025C29.6048 5.11903 29.627 5.15781 29.6499 5.19776C29.6727 5.23616 29.6955 5.27456 29.719 5.31412C29.8868 5.60232 29.8868 5.60232 29.8868 5.76921C29.9193 5.78543 29.9518 5.80165 29.9853 5.81837C30.0366 5.9182 30.0842 6.01995 30.1299 6.12252C30.2359 6.36069 30.2359 6.36069 30.356 6.59182C30.4587 6.81977 30.5045 7.05198 30.5544 7.29614C30.5647 7.34243 30.5749 7.38872 30.5855 7.43641C30.7724 8.33326 30.7875 9.24314 30.7842 10.1555C30.7842 10.2664 30.7841 10.3772 30.7841 10.4881C30.7841 10.7182 30.7837 10.9484 30.783 11.1785C30.7822 11.4724 30.782 11.7663 30.782 12.0602C30.782 12.2882 30.7817 12.5163 30.7814 12.7443C30.7812 12.8527 30.7811 12.9611 30.7811 13.0695C30.781 13.2208 30.7805 13.3721 30.78 13.5234C30.78 13.5673 30.7801 13.6113 30.7801 13.6565C30.7786 13.9466 30.7574 14.2311 30.7236 14.5191C29.093 14.5555 27.4629 14.5737 25.8319 14.5743C25.701 14.5744 25.5701 14.5746 25.4391 14.5748C24.4592 14.5761 23.4819 14.5688 22.5029 14.5191C22.5017 14.3145 22.5008 14.1099 22.5002 13.9053C22.5 13.8358 22.4997 13.7662 22.4992 13.6967C22.4986 13.5964 22.4984 13.4961 22.4981 13.3958C22.4978 13.3055 22.4978 13.3055 22.4974 13.2133C22.5026 13.054 22.5219 12.9057 22.5522 12.7495C22.5198 12.7378 22.4874 12.726 22.4541 12.714C22.2636 12.6332 22.0864 12.5342 21.9061 12.433C21.8675 12.4115 21.829 12.39 21.7892 12.3678C21.2467 12.0638 20.7046 11.7579 20.177 11.4284C19.8303 11.2126 19.4738 11.0143 19.1172 10.8154C18.9125 10.7009 18.7094 10.5863 18.512 10.4597C18.3736 10.3717 18.2331 10.2962 18.0857 10.2242C17.7899 10.0796 17.5073 9.91446 17.2235 9.74784C17.1718 9.71777 17.1202 9.68771 17.067 9.65673C16.9258 9.57422 16.7853 9.49083 16.6451 9.40682C16.6115 9.38705 16.5779 9.36729 16.5433 9.34693C16.4613 9.2964 16.4613 9.2964 16.3497 9.21019C16.3497 9.16152 16.3497 9.11286 16.3497 9.06272C16.2848 9.06272 16.2198 9.06272 16.1528 9.06272C16.1528 14.2537 16.1528 19.4446 16.1528 24.7929C16.2016 24.7929 16.2503 24.7929 16.3005 24.7929C16.3052 24.7627 16.3099 24.7325 16.3148 24.7013C16.3582 24.5707 16.3952 24.5513 16.5155 24.4886C16.5505 24.4698 16.5855 24.451 16.6215 24.4317C16.6598 24.412 16.698 24.3923 16.7374 24.372C16.8188 24.3285 16.9002 24.2849 16.9816 24.2412C17.0237 24.2188 17.0658 24.1964 17.1092 24.1732C17.3098 24.0646 17.5065 23.9495 17.7034 23.8343C18.0142 23.6534 18.3269 23.4764 18.6418 23.3028C19.0857 23.0579 19.5183 22.8013 19.9417 22.5223C20.0678 22.4472 20.193 22.3818 20.3247 22.3174C20.5755 22.1939 20.8127 22.0541 21.0508 21.908C21.4239 21.6814 21.8011 21.4644 22.1843 21.2553C22.354 21.1708 22.354 21.1708 22.5029 21.057C22.5192 20.473 22.5354 19.889 22.5522 19.2873C25.2488 19.2873 27.9453 19.2873 30.7236 19.2873C30.7524 19.6897 30.7802 20.081 30.78 20.4825C30.7803 20.5511 30.7803 20.5511 30.7805 20.6211C30.781 20.7699 30.7811 20.9187 30.7811 21.0675C30.7813 21.173 30.7815 21.2784 30.7816 21.3838C30.7819 21.604 30.782 21.8243 30.782 22.0446C30.782 22.3235 30.7827 22.6024 30.7835 22.8813C30.7841 23.099 30.7842 23.3167 30.7841 23.5343C30.7842 23.637 30.7844 23.7396 30.7848 23.8423C30.7911 25.6989 30.7911 25.6989 30.536 26.5718C30.5229 26.6188 30.5098 26.6659 30.4963 26.7144C30.3998 27.0528 30.2876 27.3765 30.1329 27.6932C30.1186 27.7233 30.1043 27.7535 30.0895 27.7846C29.8143 28.363 29.5012 28.891 29.1084 29.3983C29.0848 29.429 29.0611 29.4598 29.0367 29.4914C28.9779 29.5658 28.9158 29.6375 28.8531 29.7086C28.8206 29.7086 28.7881 29.7086 28.7546 29.7086C28.7424 29.736 28.7302 29.7633 28.7177 29.7915C28.1091 30.9159 26.4013 31.6321 25.2421 31.9869C25.167 32.009 25.0918 32.031 25.0165 32.0528C24.9664 32.0677 24.9664 32.0677 24.9153 32.0829C24.3219 32.2484 23.7141 32.2794 23.1014 32.2779C23.031 32.2781 22.9606 32.2783 22.8902 32.2786C22.699 32.2792 22.5079 32.2792 22.3167 32.279C22.1096 32.279 21.9025 32.2796 21.6954 32.28C21.2906 32.2808 20.8857 32.2811 20.4809 32.2812C20.1515 32.2812 19.8221 32.2814 19.4927 32.2817C18.5568 32.2826 17.6209 32.283 16.6851 32.283C16.6095 32.283 16.6095 32.283 16.5325 32.283C16.4821 32.283 16.4317 32.283 16.3797 32.2829C15.5632 32.2829 14.7466 32.2839 13.93 32.2852C13.0896 32.2867 12.2492 32.2873 11.4088 32.2872C10.9377 32.2872 10.4667 32.2875 9.99563 32.2885C9.59456 32.2894 9.19349 32.2896 8.79242 32.289C8.58821 32.2887 8.38402 32.2886 8.17981 32.2895C7.35751 32.2928 6.56602 32.2834 5.7662 32.0681C5.71309 32.0541 5.65998 32.0401 5.60527 32.0256C5.49034 31.9939 5.37771 31.9586 5.26471 31.9206C5.22826 31.9091 5.1918 31.8976 5.15424 31.8857C4.75103 31.7549 4.37495 31.5761 4.0033 31.3738C3.72992 31.2256 3.72992 31.2256 3.45259 31.085C3.45259 31.0525 3.45259 31.0201 3.45259 30.9867C3.42594 30.9825 3.39929 30.9784 3.37183 30.9742C3.21545 30.9248 3.10476 30.8405 2.97264 30.744C2.92416 30.709 2.87568 30.6741 2.82573 30.6382C2.78893 30.6072 2.75212 30.5762 2.7142 30.5443C2.7142 30.5118 2.7142 30.4794 2.7142 30.4459C2.68578 30.4328 2.65735 30.4196 2.62806 30.406C2.51457 30.3462 2.41784 30.2836 2.3204 30.2002C2.3204 30.1677 2.3204 30.1353 2.3204 30.1018C2.27166 30.0856 2.22293 30.0694 2.17272 30.0527C2.17272 30.0202 2.17272 29.9878 2.17272 29.9544C2.14023 29.9544 2.10774 29.9544 2.07427 29.9544C2.07427 29.9219 2.07427 29.8895 2.07427 29.8561C2.04178 29.8561 2.00929 29.8561 1.97582 29.8561C1.83182 29.7031 1.70876 29.5318 1.58201 29.3645C1.56215 29.3384 1.54229 29.3124 1.52183 29.2855C1.19833 28.8583 0.937362 28.4166 0.695948 27.9389C0.67634 27.9033 0.656733 27.8677 0.636531 27.831C0.249309 27.1193 0.000716307 26.131 0.00059323 25.3215C0.000464862 25.2605 0.000336406 25.1995 0.000204148 25.1367C0.000310566 25.0694 0.000421645 25.0021 0.000536896 24.9348C0.000480161 24.863 0.000401823 24.7912 0.000304047 24.7194C9.85279e-05 24.5224 0.000200415 24.3253 0.00035287 24.1282C0.000464185 23.9156 0.000292234 23.703 0.000156827 23.4904C-6.21755e-05 23.0739 -1.43584e-05 22.6575 0.000128284 22.241C0.000239417 21.9026 0.00025399 21.5641 0.000200392 21.2256C0.000192849 21.1775 0.00018563 21.1293 0.000177858 21.0797C0.00016212 20.9819 0.000145964 20.8841 0.000129786 20.7862C-1.06188e-05 19.8687 0.000150764 18.9511 0.000415214 18.0336C0.000635111 17.2462 0.000597133 16.4589 0.000370146 15.6715C0.000106718 14.7574 2.66336e-06 13.8432 0.000153822 12.929C0.000169503 12.8315 0.000185125 12.734 0.000200392 12.6366C0.000207987 12.5886 0.000215852 12.5406 0.000223677 12.4912C0.000266183 12.1532 0.000194534 11.8151 7.87098e-05 11.4771C-5.93453e-05 11.0651 -2.2008e-05 10.6531 0.000240202 10.2412C0.00036958 10.031 0.000420218 9.82076 0.000257478 9.61055C0.000110739 9.4181 0.000191004 9.22565 0.00045277 9.0332C0.000507731 8.9636 0.000480544 8.89401 0.000361133 8.82441C0.000211136 8.72972 0.00039435 8.63503 0.00059323 8.54033C0.000601222 8.48776 0.000609032 8.43519 0.000617266 8.38103C0.0301369 7.64439 0.262564 6.88016 0.548271 6.20548C0.564012 6.1683 0.579752 6.13113 0.59597 6.09283C0.765697 5.70498 0.978373 5.3414 1.19744 4.97963C1.23062 4.92431 1.26381 4.86899 1.298 4.812C1.32675 4.771 1.35549 4.73 1.38511 4.68776C1.4176 4.68776 1.45009 4.68776 1.48356 4.68776C1.49574 4.6614 1.50793 4.63504 1.52048 4.60788C1.5971 4.4625 1.68215 4.32905 1.77891 4.19619C1.8114 4.19619 1.84389 4.19619 1.87737 4.19619C1.89056 4.16755 1.90376 4.13891 1.91736 4.1094C1.97655 3.99819 2.04169 3.9108 2.12349 3.81523C2.14888 3.78506 2.17426 3.7549 2.20041 3.72382C2.27117 3.65547 2.27117 3.65547 2.36962 3.65547C2.36962 3.62302 2.36962 3.59058 2.36962 3.55715C2.40211 3.55715 2.4346 3.55715 2.46807 3.55715C2.46807 3.52471 2.46807 3.49226 2.46807 3.45884C2.63847 3.31137 2.63847 3.31137 2.76343 3.31137C2.76343 3.27892 2.76343 3.24648 2.76343 3.21305C2.88269 3.10941 3.01722 3.02504 3.148 2.93655C3.18433 2.9112 3.22066 2.88585 3.25809 2.85974C3.31068 2.82381 3.31068 2.82381 3.36433 2.78716C3.39655 2.76513 3.42878 2.7431 3.46198 2.72041C3.55104 2.67233 3.55104 2.67233 3.69872 2.67233C3.69872 2.63989 3.69872 2.60744 3.69872 2.57402C3.89246 2.45951 4.08153 2.35638 4.29039 2.2712C4.36185 2.24094 4.43238 2.20848 4.50229 2.17481C4.89577 1.98627 5.29765 1.85414 5.71697 1.73835C5.76614 1.72467 5.76614 1.72467 5.8163 1.71071C6.61937 1.49725 7.43238 1.51276 8.2563 1.51458ZM13.5958 9.63359C13.3424 9.80594 13.0794 9.95553 12.8116 10.1042C12.7105 10.1608 12.6095 10.2175 12.5084 10.2742C12.4586 10.3021 12.4088 10.33 12.3574 10.3588C12.1562 10.4721 11.9561 10.5874 11.7564 10.7033C11.7193 10.7248 11.6822 10.7463 11.644 10.7685C11.5655 10.814 11.487 10.8596 11.4085 10.9052C11.1033 11.0818 10.7975 11.2573 10.4919 11.433C10.2182 11.5906 9.94496 11.7489 9.67253 11.9086C9.59364 11.9548 9.59364 11.9548 9.51316 12.002C9.41418 12.06 9.31529 12.1182 9.21648 12.1766C8.44902 12.6266 8.44902 12.6266 8.07981 12.7003C8.07981 15.4905 8.07981 18.2806 8.07981 21.1553C8.16103 21.1715 8.24225 21.1877 8.32594 21.2045C8.44626 21.2595 8.44626 21.2595 8.5713 21.3279C8.6404 21.3656 8.6404 21.3656 8.7109 21.4041C8.75849 21.4305 8.80608 21.4568 8.85511 21.484C8.90194 21.5095 8.94877 21.5349 8.99702 21.5611C9.25428 21.7024 9.4999 21.8528 9.74243 22.0178C9.93417 22.1429 10.1362 22.2487 10.338 22.3566C10.5989 22.4976 10.857 22.6377 11.1041 22.8021C11.3578 22.9691 11.6251 23.1056 11.8948 23.2445C12.261 23.4331 12.6114 23.6286 12.9532 23.8589C13.2562 24.0603 13.5495 24.1967 13.8884 24.3505C13.8884 19.4515 13.8884 14.5526 13.8884 9.50513C13.7554 9.50513 13.7044 9.55745 13.5958 9.63359Z" fill="#2530FF"/>
<path d="M48.9746 26.3784C46.6318 26.3784 44.7756 25.7297 43.406 24.4321C42.0364 23.1166 41.3516 21.2424 41.3516 18.8095V14.2681C41.3516 11.8353 42.0364 9.97005 43.406 8.67252C44.7756 7.35696 46.6318 6.69918 48.9746 6.69918C51.2994 6.69918 53.0925 7.33894 54.354 8.61845C55.6335 9.87994 56.2732 11.619 56.2732 13.8356V13.9978H52.7591V13.7275C52.7591 12.6102 52.4437 11.6911 51.813 10.9702C51.2002 10.2494 50.2541 9.88895 48.9746 9.88895C47.7131 9.88895 46.7219 10.2764 46.0011 11.0513C45.2802 11.8262 44.9198 12.8805 44.9198 14.2141V18.8636C44.9198 20.1791 45.2802 21.2334 46.0011 22.0263C46.7219 22.8012 47.7131 23.1887 48.9746 23.1887C50.2541 23.1887 51.2002 22.8283 51.813 22.1074C52.4437 21.3685 52.7591 20.4494 52.7591 19.3501V18.8636H56.2732V19.242C56.2732 21.4586 55.6335 23.2067 54.354 24.4862C53.0925 25.7477 51.2994 26.3784 48.9746 26.3784ZM65.6683 26.3784C64.3347 26.3784 63.1363 26.1081 62.0731 25.5675C61.0098 25.0268 60.1718 24.2429 59.5591 23.2157C58.9464 22.1885 58.64 20.954 58.64 19.5123V19.0798C58.64 17.6381 58.9464 16.4037 59.5591 15.3764C60.1718 14.3492 61.0098 13.5653 62.0731 13.0247C63.1363 12.484 64.3347 12.2137 65.6683 12.2137C67.0019 12.2137 68.2003 12.484 69.2636 13.0247C70.3268 13.5653 71.1648 14.3492 71.7775 15.3764C72.3903 16.4037 72.6966 17.6381 72.6966 19.0798V19.5123C72.6966 20.954 72.3903 22.1885 71.7775 23.2157C71.1648 24.2429 70.3268 25.0268 69.2636 25.5675C68.2003 26.1081 67.0019 26.3784 65.6683 26.3784ZM65.6683 23.3509C66.7136 23.3509 67.5786 23.0175 68.2634 22.3507C68.9482 21.6659 69.2906 20.6927 69.2906 19.4312V19.1609C69.2906 17.8994 68.9482 16.9353 68.2634 16.2685C67.5966 15.5837 66.7316 15.2413 65.6683 15.2413C64.6231 15.2413 63.7581 15.5837 63.0733 16.2685C62.3884 16.9353 62.046 17.8994 62.046 19.1609V19.4312C62.046 20.6927 62.3884 21.6659 63.0733 22.3507C63.7581 23.0175 64.6231 23.3509 65.6683 23.3509ZM75.8406 26V12.5921H79.1925V14.3492H79.6791C79.8954 13.8807 80.3008 13.4392 80.8955 13.0247C81.4902 12.5921 82.3913 12.3759 83.5987 12.3759C84.644 12.3759 85.5541 12.6192 86.329 13.1058C87.1219 13.5743 87.7346 14.2321 88.1671 15.0791C88.5997 15.9081 88.8159 16.8812 88.8159 17.9985V26H85.4099V18.2689C85.4099 17.2597 85.1576 16.5028 84.653 15.9982C84.1664 15.4936 83.4636 15.2413 82.5445 15.2413C81.4993 15.2413 80.6883 15.5927 80.1116 16.2955C79.5349 16.9803 79.2466 17.9445 79.2466 19.1879V26H75.8406ZM97.2645 26C96.3814 26 95.6606 25.7297 95.1019 25.189C94.5613 24.6304 94.2909 23.8915 94.2909 22.9724V15.4035H90.939V12.5921H94.2909V8.42923H97.697V12.5921H101.373V15.4035H97.697V22.3777C97.697 22.9184 97.9493 23.1887 98.4539 23.1887H101.049V26H97.2645ZM104.456 26V12.5921H107.808V14.1059H108.295C108.493 13.5653 108.818 13.1688 109.268 12.9165C109.737 12.6642 110.277 12.5381 110.89 12.5381H112.512V15.5657H110.836C109.971 15.5657 109.259 15.7999 108.7 16.2685C108.142 16.719 107.862 17.4219 107.862 18.377V26H104.456ZM119.02 26.3784C118.065 26.3784 117.209 26.2163 116.452 25.8919C115.695 25.5495 115.092 25.0629 114.641 24.4321C114.209 23.7834 113.992 22.9995 113.992 22.0804C113.992 21.1613 114.209 20.3954 114.641 19.7827C115.092 19.1519 115.704 18.6834 116.479 18.377C117.272 18.0526 118.173 17.8904 119.183 17.8904H122.859V17.1335C122.859 16.5028 122.661 15.9892 122.264 15.5927C121.868 15.1782 121.237 14.971 120.372 14.971C119.525 14.971 118.894 15.1692 118.48 15.5657C118.065 15.9441 117.795 16.4397 117.669 17.0524L114.533 15.9982C114.749 15.3134 115.092 14.6916 115.56 14.133C116.047 13.5563 116.687 13.0967 117.48 12.7543C118.29 12.3939 119.273 12.2137 120.426 12.2137C122.192 12.2137 123.589 12.6552 124.616 13.5383C125.643 14.4213 126.157 15.7008 126.157 17.3768V22.3777C126.157 22.9184 126.409 23.1887 126.914 23.1887H127.995V26H125.724C125.057 26 124.508 25.8378 124.075 25.5134C123.643 25.189 123.427 24.7565 123.427 24.2159V24.1889H122.913C122.841 24.4051 122.679 24.6935 122.426 25.0539C122.174 25.3963 121.778 25.7026 121.237 25.973C120.696 26.2433 119.957 26.3784 119.02 26.3784ZM119.615 23.6212C120.57 23.6212 121.345 23.3599 121.94 22.8373C122.552 22.2966 122.859 21.5848 122.859 20.7017V20.4314H119.426C118.795 20.4314 118.299 20.5666 117.939 20.8369C117.579 21.1072 117.398 21.4857 117.398 21.9722C117.398 22.4588 117.588 22.8553 117.966 23.1616C118.345 23.468 118.894 23.6212 119.615 23.6212ZM130.485 26V12.5921H133.891V26H130.485ZM132.188 11.0243C131.576 11.0243 131.053 10.8261 130.62 10.4296C130.206 10.0331 129.999 9.51051 129.999 8.86174C129.999 8.21297 130.206 7.69035 130.62 7.29389C131.053 6.89742 131.576 6.69918 132.188 6.69918C132.819 6.69918 133.342 6.89742 133.756 7.29389C134.171 7.69035 134.378 8.21297 134.378 8.86174C134.378 9.51051 134.171 10.0331 133.756 10.4296C133.342 10.8261 132.819 11.0243 132.188 11.0243ZM137.666 26V7.07763H141.072V26H137.666ZM150.415 26.3784C148.666 26.3784 147.234 26 146.116 25.2431C144.999 24.4862 144.323 23.4049 144.089 21.9993L147.225 21.1883C147.351 21.8191 147.558 22.3146 147.847 22.6751C148.153 23.0355 148.522 23.2968 148.955 23.459C149.405 23.6032 149.892 23.6753 150.415 23.6753C151.207 23.6753 151.793 23.5401 152.172 23.2698C152.55 22.9814 152.739 22.63 152.739 22.2155C152.739 21.801 152.559 21.4857 152.199 21.2694C151.838 21.0351 151.262 20.8459 150.469 20.7017L149.712 20.5666C148.775 20.3864 147.919 20.1431 147.144 19.8367C146.369 19.5123 145.747 19.0708 145.278 18.5121C144.81 17.9535 144.576 17.2326 144.576 16.3496C144.576 15.016 145.062 13.9978 146.035 13.295C147.009 12.5741 148.288 12.2137 149.874 12.2137C151.37 12.2137 152.613 12.5471 153.604 13.2139C154.595 13.8807 155.244 14.7547 155.551 15.836L152.388 16.8091C152.244 16.1243 151.946 15.6377 151.496 15.3494C151.063 15.0611 150.523 14.9169 149.874 14.9169C149.225 14.9169 148.73 15.034 148.387 15.2683C148.045 15.4846 147.874 15.7909 147.874 16.1874C147.874 16.6199 148.054 16.9443 148.414 17.1605C148.775 17.3588 149.261 17.512 149.874 17.6201L150.631 17.7553C151.64 17.9355 152.55 18.1788 153.361 18.4851C154.19 18.7735 154.839 19.197 155.307 19.7556C155.794 20.2963 156.037 21.0351 156.037 21.9722C156.037 23.3779 155.524 24.4682 154.496 25.2431C153.487 26 152.127 26.3784 150.415 26.3784ZM164.163 26L169.137 7.07763H175.354L180.328 26H176.652L175.625 21.8371H168.867L167.839 26H164.163ZM169.705 18.5392H174.787L172.489 9.32128H172.002L169.705 18.5392ZM182.593 26V7.07763H186.161V26H182.593Z" fill="#2530FF"/>
</svg>
